<?xml version="1.0" standalone="no"?>
<!DOCTYPE svg PUBLIC "-//W3C//DTD SVG 20010904//EN"
 "http://www.w3.org/TR/2001/REC-SVG-20010904/DTD/svg10.dtd">
<svg version="1.0" xmlns="http://www.w3.org/2000/svg"
 width="250.000000pt" height="250.000000pt" viewBox="0 0 250.000000 250.000000"
 preserveAspectRatio="xMidYMid meet">
<metadata>
Created by potrace 1.14, written by Peter Selinger 2001-2017
</metadata>
<g transform="translate(0.000000,250.000000) scale(0.100000,-0.100000)"
fill="#000000" stroke="none">
<path d="M2227 2482 c4 -9 9 -9 18 -2 8 7 12 6 12 -4 0 -16 -19 -15 -39 1 -9
8 -18 9 -28 2 -12 -8 -11 -9 4 -7 10 2 21 -3 24 -11 3 -10 0 -11 -9 -5 -12 6
-12 5 -1 -8 10 -13 10 -18 1 -24 -8 -4 -9 -3 -5 4 4 7 2 12 -3 12 -6 0 -11 -7
-11 -15 0 -8 5 -15 10 -15 6 0 10 -6 10 -12 -1 -7 -9 -3 -19 9 -16 19 -20 20
-25 7 -3 -8 -10 -13 -15 -9 -5 3 -13 0 -17 -6 -4 -7 -3 -10 2 -7 5 3 16 -1 23
-10 13 -14 12 -15 -7 -10 -12 4 -22 2 -22 -2 0 -5 -9 -7 -19 -5 -11 2 -26 -4
-33 -13 -12 -15 -11 -16 5 -3 11 9 17 10 17 2 0 -6 -7 -14 -15 -17 -12 -5 -10
-10 8 -26 12 -11 16 -17 10 -13 -7 3 -13 3 -13 -2 0 -4 -9 -19 -20 -33 -16
-20 -19 -21 -13 -5 6 18 5 19 -13 5 -18 -14 -18 -14 -5 2 7 10 18 15 24 11 6
-4 8 0 4 11 -4 9 -3 14 2 11 5 -3 13 0 17 6 4 7 3 9 -4 5 -6 -3 -16 2 -22 11
-7 12 -10 13 -7 3 5 -19 -11 -52 -23 -45 -12 8 -6 -20 9 -38 9 -12 10 -20 1
-34 -10 -16 -10 -15 -5 5 4 13 2 21 -4 20 -5 -2 -17 6 -26 17 -15 19 -15 18 0
-12 13 -28 13 -32 1 -27 -8 3 -17 11 -19 17 -2 7 -3 4 -1 -6 1 -10 -4 -21 -12
-24 -8 -3 -12 -9 -9 -13 3 -4 -2 -10 -10 -13 -10 -4 -12 -1 -9 11 5 15 4 15
-6 -1 -13 -19 -4 -41 12 -31 7 5 8 2 4 -5 -5 -7 -10 -10 -14 -7 -3 3 -10 -2
-17 -11 -9 -13 -14 -13 -20 -3 -6 9 -4 11 5 5 8 -5 11 -4 6 3 -3 5 -1 12 5 14
7 2 4 10 -7 18 -12 11 -15 11 -10 2 5 -8 1 -22 -11 -34 -10 -12 -12 -18 -5
-14 6 4 12 3 12 -2 0 -6 -7 -12 -15 -16 -8 -3 -15 -11 -15 -17 0 -8 4 -8 15 1
8 7 15 9 15 4 0 -5 5 -2 11 6 7 10 9 11 7 2 -2 -8 -6 -12 -10 -10 -10 5 -48
-34 -42 -44 3 -5 -3 -4 -15 4 -12 7 -21 20 -22 28 0 8 -5 4 -11 -10 -16 -36
-20 -62 -8 -55 5 3 10 1 10 -4 0 -10 -14 -15 -32 -12 -8 1 -12 -14 -9 -36 1
-6 -2 -14 -7 -17 -5 -3 -8 8 -6 24 2 16 -1 32 -6 35 -6 4 -7 -1 -3 -12 6 -16
5 -17 -13 -3 -15 11 -16 11 -6 0 15 -17 16 -56 2 -65 -6 -4 -8 -10 -5 -15 3
-5 -4 -7 -16 -5 -15 3 -19 0 -16 -10 8 -19 -18 -40 -29 -24 -4 7 -3 9 4 5 6
-3 13 -2 17 4 3 5 -2 10 -12 10 -14 0 -13 3 7 17 14 10 28 17 32 16 3 -1 9 4
12 13 3 8 2 12 -4 9 -6 -3 -10 0 -11 7 0 7 -4 3 -9 -10 -8 -20 -13 -21 -32
-12 -21 10 -22 10 -5 -3 13 -11 15 -16 5 -19 -7 -3 -13 -19 -14 -37 -1 -24 2
-31 13 -27 8 4 11 1 8 -5 -4 -6 -13 -8 -20 -5 -7 2 -21 -4 -30 -14 -10 -11
-25 -22 -35 -25 -18 -6 -23 -35 -6 -35 6 0 5 -4 -3 -9 -8 -5 -21 -7 -29 -3
-11 4 -13 1 -7 -8 6 -9 4 -11 -5 -5 -9 5 -10 2 -5 -14 4 -13 2 -21 -5 -21 -6
0 -8 5 -5 10 3 6 0 10 -7 10 -7 0 -1 11 14 25 15 13 24 25 20 28 -4 2 -1 2 6
0 7 -1 10 1 7 7 -3 5 7 17 22 27 38 24 54 41 45 46 -4 2 -1 2 6 0 7 -1 10 2 7
8 -9 13 -30 6 -30 -9 0 -7 -4 -12 -10 -11 -5 1 -9 5 -8 10 2 4 -4 6 -12 2 -13
-5 -13 -7 2 -19 17 -13 17 -13 1 -14 -10 0 -18 -5 -18 -11 0 -5 -6 -7 -12 -3
-7 4 -9 3 -5 -1 4 -5 -3 -15 -15 -22 -13 -7 -17 -12 -10 -13 7 0 10 -5 7 -11
-5 -7 -13 -5 -25 6 -14 12 -20 13 -26 4 -4 -7 -3 -10 3 -6 6 4 16 1 22 -7 8
-10 8 -16 -3 -26 -9 -6 -19 -9 -24 -6 -6 3 -16 -2 -23 -12 -13 -15 -12 -16 3
-4 11 9 18 10 23 2 3 -5 2 -10 -3 -10 -4 0 -18 -9 -31 -21 -22 -20 -22 -22 -4
-42 10 -11 13 -17 6 -14 -6 4 -13 2 -15 -5 -3 -7 -12 -9 -22 -5 -9 4 -14 12
-10 18 5 8 9 8 14 -1 5 -8 10 -8 14 -2 3 5 -1 13 -10 16 -8 3 -12 11 -8 17 4
8 3 9 -5 5 -6 -4 -9 -11 -6 -16 3 -5 1 -11 -4 -14 -5 -3 -7 -15 -4 -25 3 -13
12 -18 29 -16 13 1 21 -2 18 -7 -3 -5 -12 -7 -20 -4 -8 3 -17 -1 -20 -9 -4 -8
-11 -12 -17 -8 -7 4 -8 0 -3 -12 5 -14 4 -16 -7 -7 -8 7 -17 9 -21 5 -4 -4 -4
0 0 10 3 9 9 15 13 13 4 -3 12 -1 19 3 9 5 9 12 -3 27 -13 18 -14 18 -9 -6 4
-17 3 -21 -4 -12 -7 11 -10 11 -16 -3 -3 -9 -11 -13 -17 -9 -8 5 -8 1 0 -14
14 -26 14 -35 1 -27 -21 13 -31 -7 -15 -31 8 -13 11 -24 6 -24 -5 0 -11 5 -13
12 -5 14 -38 20 -38 6 0 -6 6 -8 13 -5 8 3 14 -1 14 -9 0 -7 -4 -11 -8 -8 -12
7 -17 -19 -8 -38 6 -10 5 -19 -1 -23 -6 -4 -10 -3 -9 2 3 20 -2 34 -11 28 -6
-4 -8 -11 -4 -16 3 -5 2 -9 -3 -8 -20 3 -34 -2 -28 -11 4 -6 11 -7 17 -4 7 4
8 2 4 -5 -6 -9 -11 -9 -22 0 -12 10 -10 16 17 39 28 23 30 29 20 46 -11 17
-11 17 -5 -6 6 -23 6 -24 -12 -10 -18 14 -18 14 -5 -2 11 -15 11 -19 -5 -25
-11 -3 -23 -13 -27 -20 -7 -12 -12 -12 -25 -1 -15 12 -16 11 -3 -4 7 -10 17
-16 21 -13 4 3 10 -4 13 -15 3 -11 1 -18 -3 -15 -5 3 -11 1 -14 -4 -7 -11 22
-23 36 -14 7 4 8 1 4 -6 -5 -7 -14 -10 -21 -7 -14 5 -32 -10 -35 -29 -1 -5 -4
-12 -7 -15 -4 -3 -3 1 1 8 4 6 3 12 -2 12 -5 0 -9 16 -8 35 0 19 4 35 9 35 4
0 7 -5 7 -11 0 -5 5 -7 11 -3 8 5 6 10 -5 16 -10 6 -21 7 -24 3 -7 -6 -8 -10
-11 -36 0 -5 -7 -7 -13 -3 -9 5 -9 2 1 -9 7 -9 10 -17 6 -17 -4 0 -2 -6 4 -14
10 -12 8 -17 -9 -26 -13 -7 -19 -17 -16 -26 3 -8 2 -12 -4 -9 -15 9 -50 -17
-40 -30 11 -13 -55 -13 -67 0 -5 4 -3 5 4 1 6 -3 15 -1 19 5 4 8 9 7 15 -2 7
-11 9 -11 10 -1 1 6 2 17 3 24 0 6 7 13 15 16 9 3 11 0 6 -8 -5 -9 -4 -11 4
-6 6 4 8 12 5 18 -4 6 -2 8 4 4 6 -3 13 -2 17 4 9 15 -18 12 -42 -5 -12 -8
-23 -12 -26 -7 -2 4 -3 2 -2 -3 2 -10 -26 -43 -32 -37 -10 9 -12 -1 -3 -18 6
-11 16 -17 25 -14 8 4 15 2 15 -4 0 -6 -6 -9 -13 -8 -17 2 -54 29 -55 39 0 5
-4 12 -8 15 -4 4 -4 2 -1 -4 4 -6 -5 -22 -18 -34 -27 -25 -35 -19 -10 6 8 9
15 20 15 27 0 6 -6 3 -13 -7 -12 -17 -15 -17 -29 -2 -9 9 -19 16 -22 16 -12 0
-1 -25 14 -32 13 -5 12 -7 -2 -7 -9 -1 -23 6 -31 14 -8 8 -17 11 -21 8 -3 -4
-6 -4 -6 -1 0 3 8 12 17 19 15 12 16 12 8 -1 -9 -16 -10 -16 35 18 3 2 -4 2
-15 0 -11 -1 -19 2 -18 9 3 12 -14 12 -34 0 -16 -10 -16 -2 -3 23 7 13 7 21 0
25 -6 4 -10 3 -9 -2 5 -29 -17 -40 -38 -19 -8 7 -9 11 -12 39 -1 8 -4 8 -9 2
-4 -6 -26 -11 -48 -11 -33 0 -41 3 -36 15 4 10 1 12 -9 6 -12 -7 -12 -6 -1 7
9 11 10 18 2 23 -5 3 -10 1 -10 -6 0 -9 -4 -8 -12 3 -7 8 -22 21 -33 27 -19
11 -19 12 3 6 21 -6 22 -5 11 14 -11 16 -16 18 -29 8 -8 -6 -12 -8 -8 -3 4 5
1 18 -7 28 -7 11 -11 28 -7 37 5 14 3 14 -10 3 -14 -11 -16 -10 -13 13 2 18
-2 25 -11 21 -9 -3 -11 0 -7 11 5 14 3 13 -20 -1 -18 -12 -27 -14 -32 -6 -4 6
-4 14 -1 17 3 4 6 1 6 -6 0 -10 5 -10 23 2 21 13 25 13 46 -4 13 -11 18 -19
12 -19 -6 0 -11 -5 -11 -11 0 -5 4 -8 9 -4 12 7 33 -29 23 -39 -3 -4 0 -5 8
-3 8 2 12 2 8 0 -13 -7 -9 -20 5 -20 7 0 14 9 14 19 1 10 -5 18 -13 18 -8 0
-14 5 -14 11 0 6 8 9 17 7 13 -4 18 2 19 19 2 22 1 23 -11 6 -11 -14 -15 -15
-29 -4 -9 7 -14 17 -11 21 3 4 -7 15 -20 24 -14 10 -23 22 -19 28 4 7 3 8 -5
4 -6 -4 -14 0 -17 9 -4 10 -13 13 -24 10 -10 -3 -22 0 -26 6 -5 8 -3 9 6 4 9
-6 11 -4 5 5 -6 10 -4 12 10 6 18 -7 18 -6 1 13 -17 18 -17 20 1 30 10 6 14
10 8 11 -20 0 -35 -17 -29 -33 7 -18 -11 -24 -21 -7 -5 8 -11 7 -21 -1 -10 -8
-14 -8 -14 0 0 6 4 11 8 11 4 0 8 9 9 21 2 17 -1 18 -13 8 -12 -10 -16 -9 -21
9 -6 24 -18 28 -28 12 -4 -6 -15 -8 -26 -5 -14 5 -17 3 -13 -9 3 -9 2 -16 -4
-16 -6 0 -9 8 -7 18 2 11 10 16 26 14 23 -2 23 -2 7 14 -14 14 -20 15 -33 4
-8 -7 -18 -10 -22 -7 -3 4 2 9 11 13 9 3 13 10 10 16 -3 5 -12 4 -22 -4 -13
-11 -13 -9 1 13 15 23 16 28 3 38 -8 7 -21 9 -28 5 -7 -4 -10 -3 -5 1 10 12
-32 55 -49 48 -8 -3 -17 2 -20 11 -3 9 -10 13 -16 10 -5 -4 -5 -10 1 -18 7 -8
6 -17 -1 -26 -8 -12 -9 -12 -4 2 3 10 0 20 -5 24 -7 4 -7 10 0 17 6 6 11 16
11 21 0 6 -5 5 -12 -2 -7 -7 -17 -12 -22 -12 -6 0 -3 5 7 11 15 9 16 12 3 31
-8 11 -12 27 -9 36 5 11 3 13 -8 7 -12 -7 -12 -6 -1 7 9 11 10 18 2 23 -5 3
-10 2 -10 -3 0 -5 -7 -9 -16 -9 -15 0 -15 2 1 13 13 10 21 10 36 1 13 -8 15
-13 6 -19 -9 -6 -9 -8 2 -8 11 0 11 -3 1 -15 -9 -10 -9 -15 -1 -16 26 -3 30
-4 37 -11 4 -5 0 -8 -10 -8 -9 0 -14 -5 -11 -10 4 -6 10 -8 15 -5 5 3 12 0 16
-6 4 -8 3 -9 -4 -5 -7 4 -12 2 -12 -4 0 -6 11 -8 25 -6 15 3 23 1 19 -5 -7
-11 13 -39 29 -39 5 0 3 8 -6 18 -15 17 -17 20 -17 45 0 8 -4 7 -10 -3 -5 -8
-10 -13 -11 -10 0 3 -2 16 -5 29 -4 21 -3 22 13 10 16 -12 17 -12 6 2 -7 9 -9
19 -5 23 4 4 0 6 -8 4 -8 -2 -14 3 -12 10 1 6 -2 12 -8 12 -5 0 -10 -5 -10
-11 0 -5 -4 -8 -10 -4 -5 3 -7 12 -3 20 3 10 -1 15 -11 15 -14 0 -15 4 -5 21
8 16 8 24 -1 33 -8 8 -9 6 -4 -9 6 -17 5 -18 -7 -8 -8 6 -17 11 -21 10 -3 -1
-10 1 -14 6 -4 4 -2 7 4 7 6 0 17 10 23 23 l11 22 -21 -22 c-12 -13 -22 -26
-22 -30 0 -5 -5 -13 -11 -20 -5 -7 -6 -18 -2 -24 4 -8 3 -9 -4 -5 -16 10 -15
36 1 36 6 0 -3 12 -21 26 -17 14 -32 31 -32 37 0 7 5 4 11 -5 5 -10 19 -23 30
-29 19 -10 20 -9 14 13 -7 21 -6 22 9 9 14 -12 13 -8 -3 20 -21 34 -68 95 -56
72 10 -20 -13 -15 -24 4 -5 10 -13 15 -17 11 -4 -5 -14 -2 -22 5 -13 9 -14 9
-8 0 4 -8 2 -13 -6 -13 -8 0 -9 -3 -3 -8 12 -8 20 -46 8 -39 -4 3 -8 -25 -8
-63 0 -55 3 -67 15 -63 13 4 13 3 0 -9 -19 -16 -25 -162 -6 -151 8 5 8 3 0 -8
-17 -22 -13 -275 4 -271 8 1 11 -2 7 -8 -3 -6 -11 -8 -16 -4 -13 8 -7 -29 6
-38 6 -5 6 -8 -1 -8 -6 0 -11 -15 -10 -32 1 -22 6 -32 14 -30 8 1 11 -2 7 -8
-3 -6 -10 -8 -14 -6 -4 3 -7 -21 -7 -52 1 -42 5 -56 14 -54 8 1 11 -2 7 -8 -3
-6 -10 -8 -14 -6 -4 3 -7 -21 -7 -52 1 -42 5 -56 14 -54 8 1 11 -2 7 -8 -3 -6
-10 -8 -14 -6 -4 3 -7 -21 -7 -52 1 -42 5 -56 14 -54 8 1 11 -2 7 -8 -3 -6
-10 -8 -14 -6 -4 3 -7 -21 -7 -52 1 -42 5 -56 14 -54 8 1 11 -2 7 -8 -3 -6
-10 -8 -14 -6 -4 3 -7 -21 -7 -52 1 -42 5 -56 14 -54 8 1 11 -2 7 -8 -3 -6
-10 -8 -14 -6 -4 3 -7 -21 -7 -52 1 -42 5 -56 14 -54 8 1 11 -2 7 -8 -3 -6
-11 -8 -16 -5 -12 8 -11 -2 2 -27 6 -12 7 -18 1 -14 -6 4 -9 -9 -9 -32 2 -25
6 -36 15 -34 8 1 11 -2 7 -8 -3 -6 -11 -8 -16 -4 -13 8 -7 -29 6 -38 6 -5 6
-8 -1 -8 -6 0 -11 -15 -10 -32 1 -22 6 -32 14 -30 8 1 11 -2 7 -8 -3 -6 -10
-8 -14 -6 -4 3 -7 -21 -7 -52 1 -42 5 -56 14 -54 8 1 11 -2 7 -8 -3 -6 -10 -8
-14 -6 -4 3 -7 -21 -7 -52 1 -42 5 -56 14 -54 8 1 11 -2 7 -8 -3 -6 -11 -8
-16 -4 -12 7 -7 -75 5 -95 6 -10 5 -12 -2 -7 -8 5 -12 -1 -12 -14 0 -13 4 -19
12 -14 7 4 8 3 4 -5 -15 -24 -13 -59 5 -82 16 -22 19 -22 36 -8 10 9 29 16 43
17 18 1 21 -1 10 -8 -8 -5 -17 -7 -21 -4 -4 2 -10 1 -12 -3 -3 -5 39 -8 93 -8
82 -1 97 2 88 13 -8 9 -8 16 -1 23 8 8 13 7 18 -2 5 -8 4 -10 -3 -5 -17 11
-15 -9 3 -24 12 -10 15 -9 16 6 0 15 2 16 7 4 8 -17 20 -19 40 -7 6 5 12 4 12
0 0 -11 130 -11 148 0 6 5 12 4 12 -1 0 -5 16 -9 35 -9 29 0 34 3 30 18 -3 9
-1 20 4 24 7 4 8 -1 4 -11 -4 -12 -3 -15 5 -10 7 4 10 2 6 -7 -4 -11 36 -13
240 -12 135 0 248 4 252 8 4 4 13 2 21 -5 7 -6 16 -8 20 -4 3 3 0 6 -8 6 -12
0 -11 2 1 10 12 8 9 9 -11 6 -17 -3 -26 1 -26 9 0 8 8 11 19 9 10 -2 27 -6 38
-8 11 -3 20 0 20 7 0 8 3 8 9 -1 4 -8 11 -13 15 -13 24 3 28 0 16 -14 -11 -13
-10 -14 1 -10 8 3 20 15 28 27 11 18 11 20 -3 15 -23 -9 -20 0 5 14 15 8 19 8
15 0 -7 -11 6 -15 32 -12 8 1 20 -3 28 -10 15 -12 20 0 7 17 -5 5 -1 3 7 -6
22 -21 44 -25 36 -5 -3 10 -2 13 5 10 5 -4 7 -15 4 -25 -7 -22 7 -33 29 -24
20 8 21 21 1 21 -8 0 -12 -4 -9 -9 3 -4 0 -8 -5 -8 -13 0 -14 10 -1 30 8 12
10 12 10 1 0 -11 3 -11 15 -1 8 7 12 17 8 24 -3 6 -2 7 3 3 5 -5 9 -14 9 -19
0 -6 6 -13 14 -16 8 -3 11 0 8 5 -4 6 4 11 18 11 26 -1 33 -12 13 -24 -7 -5
-8 -3 -3 5 6 10 3 11 -14 2 -12 -7 -26 -9 -31 -6 -6 3 -10 1 -10 -5 0 -7 13
-10 35 -7 20 3 36 0 39 -7 2 -6 5 -1 5 11 1 16 6 21 16 17 12 -5 13 -9 4 -20
-10 -12 -9 -13 5 -8 9 3 16 9 16 13 0 4 10 7 23 8 21 2 21 1 3 -13 -11 -8 -15
-14 -9 -14 7 0 15 5 18 10 4 6 10 8 15 5 5 -3 11 -1 15 5 3 5 13 10 21 10 9 0
12 -5 8 -12 -4 -7 -3 -8 4 -4 7 4 12 1 12 -6 0 -8 5 -6 11 5 5 9 16 17 24 17
7 0 15 -8 17 -17 3 -15 5 -14 10 5 3 12 2 20 -2 17 -14 -9 -23 16 -11 28 9 9
11 7 6 -8 l-7 -20 18 20 c14 17 16 17 11 2 -4 -11 -1 -20 8 -23 8 -4 12 -11 9
-16 -4 -6 2 -6 14 1 15 8 23 7 32 -4 10 -12 15 -13 28 -3 8 7 18 12 21 10 3
-2 7 2 9 10 3 11 2 11 -6 0 -7 -11 -11 -10 -16 4 -4 9 -2 22 4 28 8 8 9 5 4
-9 -4 -11 -4 -17 1 -13 4 4 14 3 22 -3 11 -9 11 -15 1 -28 -9 -11 -7 -11 9 2
21 18 21 18 26 0 4 -17 5 -17 6 0 1 15 4 16 22 6 15 -8 19 -8 15 0 -4 6 -3 11
2 11 6 0 13 -7 16 -16 7 -19 26 -9 25 14 0 14 -2 13 -9 -3 -7 -16 -9 -17 -9
-3 -1 9 -7 19 -13 22 -7 2 -4 4 7 3 11 -2 26 -6 33 -10 6 -5 18 -5 25 0 19 12
45 14 52 3 3 -6 11 -10 17 -10 6 0 5 7 -3 17 -13 17 -13 17 13 0 17 -11 29
-13 33 -6 5 7 11 6 21 -2 11 -9 18 -8 31 2 9 8 14 9 10 3 -4 -7 2 -11 18 -11
14 0 22 4 19 9 -4 6 3 5 14 -1 27 -14 35 -14 26 2 -5 8 -2 8 9 -2 18 -14 24
-26 8 -17 -5 3 -14 -1 -21 -9 -9 -10 -9 -15 -1 -15 6 0 11 4 11 9 0 5 16 7 35
5 24 -2 33 1 29 8 -4 6 -1 9 7 6 8 -3 13 -11 11 -17 -1 -7 8 -5 23 5 14 9 22
20 19 25 -3 5 -1 9 5 9 5 0 11 -6 14 -12 3 -7 5 -4 4 8 -1 12 -8 21 -19 21
-10 1 -16 -2 -13 -7 6 -10 -21 -7 -32 4 -4 4 -3 6 2 5 6 -2 20 3 33 10 20 11
21 15 10 29 -9 12 -7 12 10 -2 22 -19 32 -10 10 12 -9 9 -7 13 6 18 9 4 20 4
23 0 4 -3 -2 -6 -12 -6 -14 0 -15 -3 -5 -15 6 -8 8 -19 4 -26 -4 -7 -2 -10 7
-7 8 3 14 13 14 23 0 10 6 20 13 21 7 1 8 0 3 -2 -6 -3 -7 -12 -4 -20 10 -28
19 -13 19 36 1 27 -3 47 -7 44 -5 -3 -9 0 -9 5 0 6 4 11 8 11 11 0 9 131 -2
149 -6 10 -5 12 2 7 7 -4 12 -2 12 3 0 6 -7 11 -15 11 -8 0 -15 4 -15 10 0 5
7 7 15 4 8 -4 15 -2 15 4 0 5 -9 12 -20 15 -11 3 -20 10 -20 17 0 7 9 14 20
17 11 3 20 10 20 15 0 6 -7 8 -15 4 -8 -3 -15 -1 -15 4 0 6 7 10 15 10 8 0 15
5 15 11 0 5 -5 7 -12 3 -7 -5 -8 -3 -2 7 14 22 11 53 -6 66 -8 6 -12 15 -7 19
4 4 7 2 7 -4 0 -7 4 -12 8 -12 5 0 9 25 9 55 0 41 -3 52 -12 45 -7 -5 -15 -7
-18 -3 -7 6 -11 -11 -8 -33 1 -10 -28 -42 -30 -33 -1 2 -2 24 -4 49 -3 38 -2
41 6 20 8 -20 12 -22 19 -10 6 9 6 16 0 18 -6 2 -10 8 -10 14 0 6 8 4 18 -5
29 -26 38 0 38 120 0 94 -2 112 -16 116 -8 2 -16 14 -17 25 -2 25 12 38 23 21
4 -7 3 -9 -4 -5 -7 4 -10 -1 -9 -14 2 -35 24 -22 24 15 0 22 -4 32 -11 28 -7
-5 -7 -2 0 8 15 18 14 99 0 99 -8 0 -8 2 0 8 14 9 14 43 0 61 -8 11 -8 13 2 7
6 -4 12 -3 12 1 0 5 -6 15 -12 22 -7 8 -8 11 -2 8 14 -8 14 24 0 42 -8 11 -8
13 2 7 7 -4 12 -1 12 8 0 9 -4 16 -10 16 -5 0 -10 5 -10 11 0 5 4 8 8 5 12 -7
9 155 -2 173 -6 9 -5 12 1 8 7 -5 11 6 11 28 0 19 -4 35 -8 35 -4 0 -10 10
-13 23 -6 21 -5 21 8 3 13 -17 14 -17 13 5 -1 13 -6 30 -12 38 -8 11 -8 13 2
7 6 -4 12 -2 12 3 0 6 -4 11 -9 11 -5 0 -12 7 -15 16 -5 14 -4 15 8 5 11 -9
14 -6 14 16 0 16 -5 34 -12 42 -8 12 -8 13 2 7 7 -4 12 -1 12 9 0 10 -5 13
-12 9 -10 -6 -10 -4 -2 7 15 19 16 91 1 101 -9 6 -9 8 1 8 6 0 12 5 12 11 0 6
-8 8 -17 5 -16 -5 -16 -5 -2 6 20 17 21 115 1 110 -8 -1 -11 2 -7 8 3 6 11 8
16 5 5 -4 9 1 9 10 0 10 -5 13 -12 9 -10 -6 -10 -4 -2 7 15 20 16 61 1 52 -9
-5 -9 -3 -1 8 13 18 16 59 3 59 -5 0 -9 5 -9 11 0 5 4 8 8 5 5 -3 9 11 10 30
1 25 -2 33 -11 27 -9 -5 -9 -3 -1 8 15 18 15 72 0 81 -8 6 -8 8 0 8 8 0 12 25
13 71 1 57 -3 75 -17 85 -16 13 -16 14 1 8 19 -7 25 20 7 31 -5 3 -10 0 -10
-7 0 -9 -3 -10 -8 -2 -10 15 -174 13 -168 -2 2 -6 -2 -11 -10 -11 -8 0 -13 5
-11 12 3 6 -6 11 -23 10 -18 0 -26 -4 -23 -13z m223 -2 c0 -5 -8 -10 -17 -10
-15 0 -16 2 -3 10 19 12 20 12 20 0z m-203 -45 c0 -8 -4 -12 -9 -9 -4 3 -8 9
-8 15 0 5 4 9 8 9 5 0 9 -7 9 -15z m183 -15 c0 -5 -2 -10 -4 -10 -3 0 -8 5
-11 10 -3 6 -1 10 4 10 6 0 11 -4 11 -10z m-247 -24 c4 -10 1 -13 -8 -9 -8 3
-12 9 -9 14 7 12 11 11 17 -5z m21 -34 c2 -4 -4 -8 -14 -8 -10 0 -16 4 -14 8
3 4 9 8 14 8 5 0 11 -4 14 -8z m-52 -21 c-3 -9 -7 -11 -9 -4 -5 14 -33 6 -33
-9 0 -5 5 -6 10 -3 6 3 10 1 10 -4 0 -13 -3 -13 -24 -5 -11 4 -13 10 -4 23 13
22 58 24 50 2z m293 -20 c3 -5 2 -12 -3 -15 -5 -3 -9 1 -9 9 0 17 3 19 12 6z
m-21 -27 c3 -8 2 -12 -4 -9 -6 3 -10 10 -10 16 0 14 7 11 14 -7z m47 -29 c5 4
6 -2 2 -11 -4 -12 -8 -14 -11 -5 -3 9 -10 7 -25 -6 l-21 -18 20 27 c10 14 21
22 22 17 2 -5 8 -7 13 -4z m-30 -91 c23 -25 23 -26 2 -13 -13 7 -25 19 -27 26
-8 19 -2 16 25 -13z m-2379 -12 c7 -7 18 -12 25 -12 18 0 46 -47 37 -61 -5 -9
-11 -7 -21 7 -7 10 -21 19 -31 19 -9 0 -17 5 -17 12 0 19 -12 25 -18 9 -4 -9
3 -22 16 -31 12 -8 17 -15 12 -15 -22 1 -41 27 -41 56 0 33 15 39 38 16z
m1921 -7 c-3 -9 -8 -14 -10 -11 -3 3 -2 9 2 15 9 16 15 13 8 -4z m447 -10 c7
-9 8 -15 2 -15 -5 0 -12 7 -16 15 -3 8 -4 15 -2 15 2 0 9 -7 16 -15z m25 -44
c0 -16 -3 -27 -7 -24 -13 7 -7 53 6 53 1 0 1 -13 1 -29z m-31 -11 c-6 -6 -10
-3 -10 10 0 13 4 16 10 10 7 -7 7 -13 0 -20z m-2379 -31 c-6 -32 -13 -34 -12
-4 0 14 3 25 8 25 4 0 6 -10 4 -21z m2325 7 c0 -3 -4 -8 -10 -11 -5 -3 -10 -1
-10 4 0 6 5 11 10 11 6 0 10 -2 10 -4z m-2263 -31 c4 -4 3 -5 -4 -2 -6 4 -13
2 -15 -5 -3 -8 -6 -6 -10 4 -7 17 15 19 29 3z m1739 -7 c10 -12 13 -18 7 -14
-8 4 -13 2 -13 -5 0 -7 -6 -4 -14 6 -8 11 -12 23 -10 27 7 11 9 10 30 -14z
m633 -1 c0 -9 -2 -8 -6 1 -2 6 -10 9 -15 6 -7 -4 -8 -2 -4 5 9 13 26 5 25 -12z
m-2411 -12 c-3 -3 -9 2 -12 12 -6 14 -5 15 5 6 7 -7 10 -15 7 -18z m102 3 c0
7 5 10 10 7 16 -10 11 -21 -10 -22 -13 -1 -20 4 -20 15 0 15 2 15 10 2 7 -11
10 -11 10 -2z m2261 -21 c-10 -9 -11 -8 -5 6 3 10 9 15 12 12 3 -3 0 -11 -7
-18z m-2344 -9 c2 -17 0 -19 -7 -8 -5 8 -6 18 -4 22 8 12 10 10 11 -14z m2333
-8 c8 -5 11 -10 5 -10 -5 0 -17 5 -25 10 -8 5 -10 10 -5 10 6 0 17 -5 25 -10z
m-2385 -18 c-3 -3 -11 0 -18 7 -9 10 -8 11 6 5 10 -3 15 -9 12 -12z m1779 -4
c-3 -4 -9 -8 -15 -8 -5 0 -9 4 -9 8 0 5 7 9 15 9 8 0 12 -4 9 -9z m609 -13
c-3 -9 -8 -14 -10 -11 -3 3 -2 9 2 15 9 16 15 13 8 -4z m-2178 -5 c3 -5 1 -10
-4 -10 -6 0 -11 5 -11 10 0 6 2 10 4 10 3 0 8 -4 11 -10z m-61 -38 c2 -4 -5
-9 -17 -9 -17 -2 -19 0 -7 7 18 12 18 12 24 2z m2263 1 c-4 -3 -3 -11 3 -17 6
-8 2 -12 -13 -13 -12 0 -17 1 -10 4 7 2 9 11 6 19 -3 8 1 14 8 14 7 0 9 -3 6
-7z m-2167 -88 c19 -22 8 -25 -12 -3 -10 10 -14 18 -9 18 5 0 14 -7 21 -15z
m-35 -4 c3 -5 2 -12 -3 -15 -5 -3 -9 1 -9 9 0 17 3 19 12 6z m2228 -37 c-7
-19 -10 -18 -16 5 -3 13 -1 18 9 14 7 -2 10 -11 7 -19z m-820 9 c3 -5 -6 -9
-20 -10 -19 -1 -22 1 -12 8 17 11 26 11 32 2z m-1323 -13 c0 -5 -4 -10 -10
-10 -5 0 -10 5 -10 10 0 6 5 10 10 10 6 0 10 -4 10 -10z m-60 -10 c0 -5 -2
-10 -4 -10 -3 0 -8 5 -11 10 -3 6 -1 10 4 10 6 0 11 -4 11 -10z m1358 -25 c-3
-3 -9 2 -12 12 -6 14 -5 15 5 6 7 -7 10 -15 7 -18z m796 -21 c3 -8 2 -12 -4
-9 -6 3 -10 10 -10 16 0 14 7 11 14 -7z m-909 -25 c-4 -13 -3 -19 2 -16 5 4
10 -1 10 -9 0 -13 -2 -13 -14 -1 -8 7 -11 21 -7 30 9 25 17 21 9 -4z m-1187
-14 c-3 -3 -9 2 -12 12 -6 14 -5 15 5 6 7 -7 10 -15 7 -18z m2079 10 c0 -8 -4
-12 -9 -9 -5 3 -6 10 -3 15 9 13 12 11 12 -6z m27 -44 c-16 -14 -17 -14 -6 0
7 9 10 25 6 35 -5 18 -5 18 6 0 10 -15 9 -21 -6 -35z m-941 2 c-6 -16 -23 -18
-23 -2 0 5 -6 7 -12 3 -7 -4 -4 2 6 15 20 22 40 12 29 -16z m-1059 19 c3 -5
-1 -9 -9 -9 -8 0 -15 4 -15 9 0 4 4 8 9 8 6 0 12 -4 15 -8z m56 -42 c0 -5 -4
-10 -10 -10 -5 0 -10 5 -10 10 0 6 5 10 10 10 6 0 10 -4 10 -10z m85 -58 c19
-18 33 -32 29 -32 -4 0 -16 7 -26 16 -14 13 -21 14 -32 5 -11 -9 -17 -8 -30 4
-9 9 -16 22 -16 28 0 8 -3 8 -9 -1 -7 -11 -9 -11 -14 0 -10 28 59 13 98 -20z
m-109 9 c1 -6 0 -7 -3 -1 -2 5 -9 8 -13 5 -5 -3 -11 -1 -14 4 -4 5 2 8 11 7 9
-2 18 -8 19 -15z m1984 -5 c0 -2 -7 -7 -16 -10 -8 -3 -12 -2 -9 4 6 10 25 14
25 6z m-1959 -29 c-10 -9 -11 -8 -5 6 3 10 9 15 12 12 3 -3 0 -11 -7 -18z
m1924 -17 c3 -6 -1 -7 -9 -4 -18 7 -21 14 -7 14 6 0 13 -4 16 -10z m-1051 -29
c-2 -3 -12 3 -22 13 -16 17 -16 18 5 5 12 -7 20 -15 17 -18z m1099 5 c4 -11 1
-13 -10 -9 -12 5 -14 3 -8 -7 5 -9 4 -11 -4 -6 -9 6 -9 11 0 22 14 17 16 17
22 0z m-1896 -26 c-1 -21 -10 -18 -13 5 -1 8 2 15 6 15 5 0 8 -9 7 -20z m1883
-35 c0 -4 -9 4 -20 18 -11 14 -20 28 -20 32 0 4 9 -4 20 -18 11 -14 20 -28 20
-32z m-23 -17 c-3 -8 -6 -5 -6 6 -1 11 2 17 5 13 3 -3 4 -12 1 -19z m-1822 4
c-3 -3 1 -12 7 -21 10 -12 7 -12 -8 2 -11 9 -24 14 -29 10 -4 -5 -5 -3 -2 3 3
6 13 11 22 11 8 0 13 -3 10 -5z m1873 -17 c-3 -3 -9 2 -12 12 -6 14 -5 15 5 6
7 -7 10 -15 7 -18z m-33 -25 c0 -7 -7 -15 -15 -17 -13 -4 -13 -3 0 6 13 10 13
12 0 22 -13 9 -13 10 0 6 8 -2 15 -10 15 -17z m-1145 6 c0 -2 -8 -10 -17 -17
-16 -13 -17 -12 -4 4 13 16 21 21 21 13z m-634 -52 c2 -14 0 -24 -3 -20 -3 3
-7 17 -9 32 -1 14 0 23 3 20 4 -3 8 -18 9 -32z m1753 2 c9 -11 9 -16 0 -22 -7
-4 -9 -3 -5 4 3 6 -2 15 -11 21 -10 6 -13 11 -7 11 6 0 17 -6 23 -14z m27 -22
c-4 -12 -2 -15 9 -10 21 8 19 -1 -4 -14 -16 -8 -19 -7 -16 8 2 9 4 20 4 25 1
4 4 7 7 7 3 0 3 -7 0 -16z m-1651 -15 c-6 -9 30 -40 38 -32 4 3 7 1 7 -5 0
-11 -7 -14 -26 -11 -4 0 -11 -5 -16 -13 -8 -10 -9 -9 -5 3 6 19 -31 55 -53 51
-11 -2 -12 -1 -3 6 15 10 64 11 58 1z m-23 -46 c-6 -2 -9 -10 -6 -15 4 -7 2
-8 -5 -4 -13 9 -5 26 12 25 9 0 8 -2 -1 -6z m102 -18 c-16 -12 -44 -10 -44 2
0 3 6 3 14 0 8 -3 17 1 20 9 3 9 11 12 17 9 6 -5 4 -12 -7 -20z m1564 -10 c-3
-3 -9 2 -12 12 -6 14 -5 15 5 6 7 -7 10 -15 7 -18z m-1298 1 c0 -3 -4 -8 -10
-11 -5 -3 -10 -1 -10 4 0 6 5 11 10 11 6 0 10 -2 10 -4z m1335 -6 c-3 -5 -12
-10 -18 -10 -7 0 -6 4 3 10 19 12 23 12 15 0z m-1620 -20 c-3 -5 -12 -10 -18
-10 -7 0 -6 4 3 10 19 12 23 12 15 0z m1603 -4 c-2 -1 -10 -7 -19 -14 -14 -10
-18 -10 -22 2 -4 11 -1 13 10 9 11 -4 14 -2 9 5 -5 8 -2 10 9 6 9 -4 15 -7 13
-8z m-1573 -5 c3 -5 2 -12 -3 -15 -5 -3 -9 1 -9 9 0 17 3 19 12 6z m125 -11
c0 -5 -2 -10 -4 -10 -3 0 -8 5 -11 10 -3 6 -1 10 4 10 6 0 11 -4 11 -10z
m1397 -17 c-4 -3 -1 -13 6 -22 11 -14 10 -14 -5 -2 -16 12 -16 31 -1 31 4 0 3
-3 0 -7z m53 3 c0 -2 -7 -7 -16 -10 -8 -3 -12 -2 -9 4 6 10 25 14 25 6z m10
-26 c0 -5 -4 -10 -10 -10 -5 0 -10 5 -10 10 0 6 5 10 10 10 6 0 10 -4 10 -10z
m-15 -40 c3 -5 -4 -6 -15 -3 -11 3 -22 9 -25 13 -3 5 4 6 15 3 11 -3 22 -9 25
-13z m-5 -60 c0 -5 -8 -10 -17 -10 -15 0 -16 2 -3 10 19 12 20 12 20 0z m13
-40 c-4 -4 -17 -4 -28 1 -18 9 -18 9 3 5 17 -3 22 1 23 17 1 19 2 19 6 3 3
-10 1 -22 -4 -26z m-56 15 c0 -8 -4 -12 -9 -9 -5 3 -6 10 -3 15 9 13 12 11 12
-6z m38 -35 c3 -5 1 -10 -4 -10 -6 0 -11 5 -11 10 0 6 2 10 4 10 3 0 8 -4 11
-10z m-5 -54 c0 -12 -5 -7 -19 24 -11 24 -11 24 3 6 9 -11 16 -24 16 -30z m29
-31 c3 -3 -7 -4 -23 -1 -16 3 -31 8 -35 11 -3 3 7 4 23 1 16 -3 31 -8 35 -11z
m-44 -15 c3 -6 -1 -7 -9 -4 -18 7 -21 14 -7 14 6 0 13 -4 16 -10z m25 -15 c0
-8 -4 -15 -10 -15 -5 0 -7 7 -4 15 4 8 8 15 10 15 2 0 4 -7 4 -15z m-60 -5 c0
-5 -2 -10 -4 -10 -3 0 -8 5 -11 10 -3 6 -1 10 4 10 6 0 11 -4 11 -10z m37 -42
c-4 -12 -1 -18 6 -15 7 3 11 9 10 15 -1 5 4 16 12 22 11 9 15 9 15 1 0 -6 -5
-11 -11 -11 -5 0 -8 -4 -4 -9 3 -5 0 -13 -5 -16 -7 -5 -5 -12 7 -20 15 -11 15
-15 4 -29 -12 -14 -11 -19 5 -31 10 -8 14 -15 8 -15 -16 0 -37 27 -30 39 4 5
2 12 -4 16 -6 4 -8 10 -5 15 3 4 -1 10 -9 13 -9 4 -12 14 -9 28 5 17 3 20 -7
14 -9 -5 -11 -4 -6 4 11 17 28 2 23 -21z m0 -63 c4 -4 2 -5 -4 -1 -8 4 -13 1
-13 -8 0 -9 -4 -16 -8 -16 -4 0 -8 8 -8 19 0 19 19 22 33 6z m-1 -32 c-3 -4 6
-12 21 -18 l28 -12 -31 1 c-22 1 -31 5 -28 16 4 21 3 20 11 20 3 0 3 -3 -1 -7z
m39 -129 c-11 -8 -19 -20 -17 -25 1 -5 -2 -9 -8 -9 -5 0 -10 3 -10 7 0 11 33
43 44 43 6 0 2 -8 -9 -16z m-56 -21 c0 -11 -3 -13 -6 -5 -2 6 -10 9 -15 6 -7
-4 -8 -2 -4 4 11 18 26 14 25 -5z m59 -41 c2 -6 -1 -12 -8 -12 -6 0 -8 5 -5
10 3 6 2 10 -4 10 -14 0 -29 -32 -24 -47 3 -7 9 -13 15 -13 6 0 8 7 4 15 -3 8
-1 15 4 15 14 0 12 -27 -2 -36 -17 -11 -39 25 -28 47 7 12 6 19 -3 22 -6 3 1
4 17 3 16 -1 31 -7 34 -14z m-45 -81 c-2 -6 2 -11 7 -11 6 0 10 5 10 12 0 6 3
8 7 4 5 -4 0 -13 -10 -21 -15 -11 -15 -14 -2 -25 8 -7 15 -16 15 -21 0 -5 -9
0 -20 11 -11 11 -17 28 -15 40 3 16 0 20 -11 16 -9 -3 -12 -2 -9 5 9 13 31 5
28 -10z m2 -72 c-8 -12 -32 -12 -39 0 -4 5 4 7 16 3 16 -4 19 -2 13 8 -5 9 -4
11 4 6 6 -4 9 -12 6 -17z m35 -28 c13 -25 13 -31 0 -31 -5 0 -9 3 -9 8 3 18
-2 32 -12 32 -6 0 -8 -10 -5 -22 3 -13 3 -17 0 -10 -3 6 -10 9 -16 6 -6 -4 -5
2 1 15 14 26 27 27 41 2z m-57 -6 c-3 -9 -8 -14 -10 -11 -3 3 -2 9 2 15 9 16
15 13 8 -4z m70 -52 c-3 -7 -9 -13 -15 -13 -5 0 -7 4 -3 9 3 5 -3 12 -12 14
-10 3 -6 4 8 4 18 -1 25 -6 22 -14z m-79 -11 c3 -5 -1 -9 -9 -9 -8 0 -12 4 -9
9 3 4 7 8 9 8 2 0 6 -4 9 -8z m41 -2 c-3 -5 -11 -10 -16 -10 -6 0 -7 5 -4 10
3 6 11 10 16 10 6 0 7 -4 4 -10z m15 -29 c-8 -16 -6 -22 7 -31 14 -8 14 -10 3
-9 -31 3 -41 -1 -34 -13 4 -8 3 -9 -2 -5 -5 5 -9 22 -10 38 -1 23 1 27 12 18
11 -9 14 -8 14 5 0 9 5 16 10 16 7 0 7 -6 0 -19z m25 -11 c3 -5 1 -10 -4 -10
-6 0 -11 5 -11 10 0 6 2 10 4 10 3 0 8 -4 11 -10z m-28 -62 c-3 -8 -6 -5 -6 6
-1 11 2 17 5 13 3 -3 4 -12 1 -19z m18 -18 c-3 -5 -12 -10 -18 -10 -7 0 -6 4
3 10 19 12 23 12 15 0z m-2399 -109 c1 -6 0 -7 -3 -1 -2 5 -9 7 -14 4 -6 -4
-6 -11 1 -19 8 -10 8 -15 0 -20 -6 -4 -17 1 -25 11 -12 16 -12 19 1 22 8 2 12
7 9 12 -3 4 3 7 12 6 9 -2 18 -8 19 -15z m784 15 c0 -2 -7 -7 -16 -10 -8 -3
-12 -2 -9 4 6 10 25 14 25 6z m213 -24 c3 7 4 3 4 -9 -1 -17 -4 -19 -14 -11
-10 8 -13 7 -14 -3 0 -10 -2 -11 -6 -1 -2 6 -9 12 -14 12 -6 0 -8 -4 -5 -8 3
-5 -1 -9 -9 -9 -10 0 -12 4 -5 12 5 7 6 15 2 20 -4 4 3 2 16 -4 22 -12 29 -4
15 15 -5 5 -1 1 9 -8 12 -13 18 -15 21 -6z m480 13 c-3 -9 -8 -14 -10 -11 -3
3 -2 9 2 15 9 16 15 13 8 -4z m47 5 c0 -5 -9 -14 -20 -20 -14 -7 -20 -7 -20 0
0 5 7 10 15 10 8 0 15 5 15 10 0 6 2 10 5 10 3 0 5 -4 5 -10z m296 -10 c8 0
14 5 14 12 0 6 3 9 6 5 7 -7 -8 -35 -20 -37 -10 -2 -26 20 -25 35 0 6 3 4 6
-2 2 -7 11 -13 19 -13z m119 10 c3 -5 1 -10 -4 -10 -6 0 -11 5 -11 10 0 6 2
10 4 10 3 0 8 -4 11 -10z m125 4 c0 -8 -19 -13 -24 -6 -3 5 1 9 9 9 8 0 15 -2
15 -3z m186 -9 c-3 -8 -1 -15 4 -15 6 0 10 8 10 17 0 15 1 15 13 -2 8 -10 19
-15 25 -11 6 3 13 2 16 -3 8 -13 -20 -21 -32 -9 -7 7 -16 6 -30 -1 -26 -14
-39 2 -20 23 17 20 22 20 14 1z m-640 -7 c4 4 2 -1 -5 -10 -10 -14 -16 -15
-31 -5 -14 8 -16 13 -7 19 6 4 16 3 23 -2 6 -6 15 -6 20 -2z m91 -2 c0 -8 -6
-12 -15 -9 -11 5 -11 7 0 14 7 5 13 9 14 9 0 0 1 -6 1 -14z m-1593 -11 c5 0
10 -6 12 -13 1 -7 0 -8 -2 -3 -3 6 -11 8 -18 5 -8 -3 -16 2 -20 11 -4 11 -2
14 7 8 6 -4 16 -8 21 -8z m376 11 c0 -2 -7 -7 -16 -10 -8 -3 -12 -2 -9 4 6 10
25 14 25 6z m75 -6 c3 -5 1 -10 -4 -10 -6 0 -11 5 -11 10 0 6 2 10 4 10 3 0 8
-4 11 -10z m98 -13 c4 3 7 4 7 0 0 -18 -21 -14 -30 5 -10 21 -10 21 3 6 8 -10
17 -15 20 -11z m184 3 c-1 -21 -10 -18 -13 5 -1 8 2 15 6 15 5 0 8 -9 7 -20z
m26 0 c-3 -12 -8 -19 -11 -16 -5 6 5 36 12 36 2 0 2 -9 -1 -20z m880 6 c3 -8
3 -17 0 -20 -7 -7 -33 13 -33 25 0 15 27 10 33 -5z m-1579 -12 c3 -8 2 -12 -4
-9 -6 3 -10 10 -10 16 0 14 7 11 14 -7z m96 6 c0 -5 -5 -10 -11 -10 -5 0 -7 5
-4 10 3 6 8 10 11 10 2 0 4 -4 4 -10z m431 -13 c-10 -9 -11 -8 -5 6 3 10 9 15
12 12 3 -3 0 -11 -7 -18z m113 7 c3 -8 2 -12 -4 -9 -6 3 -10 10 -10 16 0 14 7
11 14 -7z m108 9 c-6 -2 -9 -10 -6 -15 4 -7 2 -8 -5 -4 -13 9 -5 26 12 25 9 0
8 -2 -1 -6z m628 3 c0 -3 -4 -8 -10 -11 -5 -3 -10 -1 -10 4 0 6 5 11 10 11 6
0 10 -2 10 -4z m-1055 -16 c3 -5 1 -10 -4 -10 -6 0 -11 5 -11 10 0 6 2 10 4
10 3 0 8 -4 11 -10z m135 0 c0 -5 -5 -10 -11 -10 -5 0 -7 5 -4 10 3 6 8 10 11
10 2 0 4 -4 4 -10z m140 6 c0 -3 -4 -8 -10 -11 -5 -3 -10 -1 -10 4 0 6 5 11
10 11 6 0 10 -2 10 -4z m-183 -12 c-3 -3 -12 -4 -19 -1 -8 3 -5 6 6 6 11 1 17
-2 13 -5z"/>
<path d="M34 2158 c-4 -6 -3 -8 3 -5 13 8 36 -17 25 -28 -4 -5 1 -5 10 -2 11
4 23 -1 33 -16 8 -12 15 -17 15 -12 -1 26 -75 81 -86 63z"/>
<path d="M522 1581 c-10 -6 -10 -10 1 -20 12 -9 16 -8 20 3 7 19 -4 27 -21 17z"/>
<path d="M790 1275 c13 -14 26 -25 28 -25 3 0 -5 11 -18 25 -13 14 -26 25 -28
25 -3 0 5 -11 18 -25z"/>
<path d="M2445 770 c3 -5 8 -10 11 -10 2 0 4 5 4 10 0 6 -5 10 -11 10 -5 0 -7
-4 -4 -10z"/>
<path d="M2420 230 c0 -5 5 -10 11 -10 5 0 7 5 4 10 -3 6 -8 10 -11 10 -2 0
-4 -4 -4 -10z"/>
<path d="M77 2213 c-10 -9 -9 -23 1 -23 5 0 9 7 9 15 0 17 -1 18 -10 8z"/>
<path d="M1925 2199 c-4 -6 -5 -12 -2 -15 2 -3 7 2 10 11 7 17 1 20 -8 4z"/>
<path d="M121 2176 c-9 -11 -9 -16 1 -22 7 -4 10 -4 6 1 -4 4 -3 14 3 22 6 7
9 13 6 13 -2 0 -10 -6 -16 -14z"/>
<path d="M1856 2105 c-9 -26 -7 -32 5 -12 6 10 9 21 6 23 -2 3 -7 -2 -11 -11z"/>
<path d="M1846 2058 c3 -5 10 -6 15 -3 13 9 11 12 -6 12 -8 0 -12 -4 -9 -9z"/>
<path d="M1770 2016 c0 -8 7 -17 16 -20 13 -5 14 -4 6 7 -7 8 -9 17 -5 20 3 4
1 7 -5 7 -7 0 -12 -6 -12 -14z"/>
<path d="M1710 1966 c0 -2 7 -7 16 -10 8 -3 12 -2 9 4 -6 10 -25 14 -25 6z"/>
<path d="M1675 1951 c-3 -5 -2 -12 3 -15 5 -3 9 1 9 9 0 17 -3 19 -12 6z"/>
<path d="M294 1890 c2 -21 11 -39 25 -48 11 -8 21 -20 21 -26 0 -6 -4 -4 -10
4 -5 8 -12 11 -16 7 -4 -3 4 -15 17 -26 13 -10 24 -26 24 -35 0 -9 3 -15 7
-13 4 1 15 -8 23 -21 18 -25 37 -21 29 6 -2 9 4 0 15 -22 11 -23 21 -34 26
-27 4 7 2 18 -4 25 -6 7 -8 16 -4 19 11 12 19 8 21 -10 4 -45 9 -64 19 -74 7
-7 9 -2 5 17 -3 16 -1 25 5 21 5 -3 10 0 10 8 0 8 -4 15 -9 15 -4 0 -8 -6 -8
-12 0 -9 -4 -8 -10 2 -13 21 -12 30 3 26 6 -1 9 -1 4 1 -4 3 -5 8 -3 12 5 7
-9 11 -47 12 -11 0 -15 5 -10 12 4 8 1 8 -9 -1 -11 -9 -18 -10 -23 -2 -3 5 0
10 7 10 8 1 6 6 -5 15 -11 7 -26 11 -35 7 -14 -4 -15 -3 -6 9 6 8 14 22 17 32
6 15 4 16 -14 6 -19 -9 -20 -8 -14 10 4 13 2 21 -5 21 -6 0 -8 -4 -5 -10 3 -5
-1 -10 -10 -10 -9 0 -14 3 -12 8 2 4 -2 21 -9 37 l-13 30 3 -35z m57 -83 c-10
-9 -11 -8 -5 6 3 10 9 15 12 12 3 -3 0 -11 -7 -18z m26 -42 c-15 -16 -19 -13
-11 9 3 9 10 13 15 10 5 -3 3 -11 -4 -19z m23 -25 c6 -11 8 -20 6 -20 -3 0
-10 9 -16 20 -6 11 -8 20 -6 20 3 0 10 -9 16 -20z"/>
<path d="M317 1893 c3 -7 6 -13 8 -13 2 0 5 6 8 13 3 8 -1 14 -8 14 -7 0 -11
-6 -8 -14z"/>
<path d="M1635 1880 c-3 -5 -1 -10 4 -10 6 0 11 5 11 10 0 6 -2 10 -4 10 -3 0
-8 -4 -11 -10z"/>
<path d="M245 1860 c-3 -5 -1 -10 4 -10 6 0 11 5 11 10 0 6 -2 10 -4 10 -3 0
-8 -4 -11 -10z"/>
<path d="M436 1778 c3 -5 10 -6 15 -3 13 9 11 12 -6 12 -8 0 -12 -4 -9 -9z"/>
<path d="M510 1740 c0 -5 5 -10 11 -10 5 0 7 5 4 10 -3 6 -8 10 -11 10 -2 0
-4 -4 -4 -10z"/>
<path d="M556 1682 c-3 -5 1 -9 9 -9 8 0 12 4 9 9 -3 4 -7 8 -9 8 -2 0 -6 -4
-9 -8z"/>
<path d="M542 1640 c7 -11 17 -20 22 -20 5 0 1 9 -9 20 -10 11 -20 20 -22 20
-2 0 2 -9 9 -20z"/>
<path d="M593 1589 c-2 -23 3 -25 10 -4 4 8 3 16 -1 19 -4 3 -9 -4 -9 -15z"/>
<path d="M610 1571 c0 -6 4 -13 10 -16 6 -3 7 1 4 9 -7 18 -14 21 -14 7z"/>
<path d="M1312 1544 c-7 -8 -8 -14 -3 -14 10 0 25 19 20 25 -2 1 -10 -3 -17
-11z"/>
<path d="M630 1529 c0 -5 5 -7 10 -4 6 3 10 8 10 11 0 2 -4 4 -10 4 -5 0 -10
-5 -10 -11z"/>
<path d="M670 1455 c0 -8 2 -15 4 -15 2 0 6 7 10 15 3 8 1 15 -4 15 -6 0 -10
-7 -10 -15z"/>
<path d="M1216 1455 c-9 -26 -7 -32 5 -12 6 10 9 21 6 23 -2 3 -7 -2 -11 -11z"/>
<path d="M678 1432 c-15 -14 -14 -17 13 -44 16 -16 27 -34 24 -38 -3 -5 2 -13
12 -18 22 -12 63 2 62 20 0 10 -2 10 -6 1 -2 -7 -9 -13 -14 -13 -6 0 -7 6 -4
13 4 6 -1 3 -9 -7 -9 -11 -16 -14 -16 -7 0 7 -5 9 -12 5 -7 -4 -8 -3 -4 5 4 6
12 9 17 6 5 -4 9 -2 9 4 0 5 -6 12 -12 14 -10 4 -9 8 2 17 13 9 12 10 -5 8
-15 -2 -20 2 -18 17 1 18 0 18 -10 4 -7 -9 -18 -14 -25 -11 -10 3 -8 8 5 17
10 7 16 15 13 18 -3 2 -13 -3 -22 -11z m42 -52 c6 -11 8 -20 6 -20 -3 0 -10 9
-16 20 -6 11 -8 20 -6 20 3 0 10 -9 16 -20z"/>
<path d="M675 1380 c3 -5 8 -10 11 -10 2 0 4 5 4 10 0 6 -5 10 -11 10 -5 0 -7
-4 -4 -10z"/>
<path d="M760 1380 c0 -5 5 -10 11 -10 5 0 7 5 4 10 -3 6 -8 10 -11 10 -2 0
-4 -4 -4 -10z"/>
<path d="M836 1347 c3 -10 9 -15 12 -12 3 3 0 11 -7 18 -10 9 -11 8 -5 -6z"/>
<path d="M1193 1335 c0 -8 4 -12 9 -9 4 3 8 9 8 15 0 5 -4 9 -8 9 -5 0 -9 -7
-9 -15z"/>
<path d="M815 1331 c-3 -5 -2 -12 3 -15 5 -3 9 1 9 9 0 17 -3 19 -12 6z"/>
<path d="M1134 1310 c0 -11 4 -20 9 -20 4 0 12 0 17 0 6 0 5 8 -2 20 -16 26
-26 25 -24 0z"/>
<path d="M1010 1239 c0 -5 5 -7 10 -4 6 3 10 8 10 11 0 2 -4 4 -10 4 -5 0 -10
-5 -10 -11z"/>
<path d="M945 1220 c3 -5 8 -10 11 -10 2 0 4 5 4 10 0 6 -5 10 -11 10 -5 0 -7
-4 -4 -10z"/>
<path d="M2423 622 c1 -14 5 -18 11 -12 7 7 6 14 -1 21 -9 9 -12 7 -10 -9z"/>
<path d="M2460 420 c0 -5 7 -10 15 -10 8 0 15 5 15 10 0 6 -7 10 -15 10 -8 0
-15 -4 -15 -10z"/>
<path d="M2405 81 c-3 -7 -3 -10 2 -9 5 2 20 -8 33 -21 18 -17 20 -22 8 -18
-23 8 -23 0 0 -12 29 -16 23 14 -9 45 -17 17 -29 22 -34 15z"/>
<path d="M2455 81 c-6 -11 23 -36 32 -27 3 3 0 6 -8 6 -11 0 -12 2 -1 9 11 7
11 9 -2 14 -8 3 -18 2 -21 -2z"/>
<path d="M1235 32 c-3 -3 -5 -10 -5 -16 0 -6 5 -4 10 4 8 13 10 12 10 -2 0
-10 5 -18 11 -18 5 0 8 4 4 10 -6 10 38 7 70 -6 17 -7 18 -6 5 7 -8 9 -19 16
-25 17 -42 7 -76 8 -80 4z"/>
<path d="M2016 31 c-3 -4 -1 -13 5 -21 5 -8 9 -10 9 -5 0 11 70 12 87 2 6 -4
16 0 22 7 8 9 8 16 2 20 -5 4 -12 2 -15 -2 -5 -9 -42 -8 -83 2 -13 2 -25 1
-27 -3z"/>
<path d="M1141 23 c-2 -20 20 -26 35 -11 13 13 13 15 0 15 -8 0 -13 -4 -10 -9
3 -4 1 -8 -5 -8 -5 0 -12 6 -14 13 -4 9 -6 9 -6 0z"/>
<path d="M2160 15 c-11 -13 -10 -14 4 -9 9 3 16 10 16 15 0 13 -6 11 -20 -6z"/>
<path d="M2194 19 c-4 -7 -3 -9 4 -5 5 3 13 0 15 -6 4 -9 6 -10 6 -1 1 17 -16
25 -25 12z"/>
</g>
</svg>
